<?xml version="1.0" standalone="no"?>
<!DOCTYPE svg PUBLIC "-//W3C//DTD SVG 1.1//EN" "http://www.w3.org/Graphics/SVG/1.1/DTD/svg11.dtd" >
<svg xmlns="http://www.w3.org/2000/svg">
<metadata>
This is a custom SVG webfont generated by Font Squirrel.
Copyright   : Copyright C 1996 Type Market Ltd Moscow 119136 Box 20 095 1427712
</metadata>
<defs>
<font id="HeliosCondCRegular" horiz-adv-x="983" >
<font-face units-per-em="2048" ascent="1624" descent="-424" />
<missing-glyph horiz-adv-x="491" />
<glyph unicode=" "  horiz-adv-x="491" />
<glyph unicode="&#x09;" horiz-adv-x="491" />
<glyph unicode="&#xa0;" horiz-adv-x="491" />
<glyph unicode="!" horiz-adv-x="653" d="M238 0v197h178v-197h-178zM238 1022v453h178v-453l-45 -662h-88z" />
<glyph unicode="&#x22;" horiz-adv-x="491" d="M86 1010v444h102v-444h-102zM305 1010v444h103v-444h-103z" />
<glyph unicode="#" d="M10 500l35 116h211l74 244h-213l37 117h211l153 498h109l-154 -498h178l148 498h110l-151 -498h215l-33 -117h-221l-72 -244h217l-28 -116h-226l-153 -500h-109l154 500h-172l-158 -500h-106l155 500h-211zM367 616h170l75 244h-174z" />
<glyph unicode="$" d="M86 457h158q0 -186 47 -260t170 -74v549q-84 39 -137.5 70.5t-110.5 80.5t-86 116t-29 151q0 168 100.5 276.5t262.5 108.5v129h86v-129q174 0 258 -111t84 -283h-160q0 137 -46 191.5t-136 54.5v-502q217 -96 301 -182t84 -266q0 -195 -97.5 -300.5t-287.5 -105.5v-198 h-86v198q-211 0 -293 127.5t-82 358.5zM268 1104q0 -96 47 -147.5t146 -98.5v469q-74 0 -133.5 -55t-59.5 -168zM547 123q117 0 166 60.5t49 179t-48 173t-167 105.5v-518z" />
<glyph unicode="%" horiz-adv-x="1638" d="M109 1100q0 348 264 348q266 0 266 -354q0 -195 -68.5 -277t-197.5 -82q-131 0 -197.5 82t-66.5 283zM240 1067q0 -221 135 -221q133 0 133 221q0 59 -4 99t-16.5 83t-41 65.5t-73.5 22.5q-57 0 -88 -43t-38 -95t-7 -132zM412 -31l657 1506h100l-651 -1506h-106zM954 365 q0 348 265 348q266 0 266 -355q0 -195 -68.5 -276.5t-197.5 -81.5q-131 0 -198 82t-67 283zM1085 332q0 -221 136 -221q133 0 133 221q0 59 -4 99t-16.5 83t-41 65.5t-73.5 22.5q-57 0 -88 -43t-38.5 -95t-7.5 -132z" />
<glyph unicode="&#x26;" horiz-adv-x="1310" d="M147 393q0 154 75 252t229 195q-72 90 -110 165.5t-38 165.5q0 125 84 214.5t211 89.5q133 0 217 -79t84 -214q0 -199 -254 -369l283 -414q49 141 57 277h145q-18 -254 -106 -408l190 -268h-196l-90 131q-133 -166 -348 -166q-201 0 -317 114.5t-116 313.5zM317 393 q0 -129 77 -204.5t206 -75.5q131 0 242 137l-322 477q-104 -76 -153.5 -149.5t-49.5 -184.5zM461 1188q0 -106 112 -266q80 61 122 119.5t42 140.5q0 68 -36.5 114.5t-102.5 46.5q-63 0 -100 -44.5t-37 -110.5z" />
<glyph unicode="'" horiz-adv-x="491" d="M195 1010v444h102v-444h-102z" />
<glyph unicode="(" horiz-adv-x="655" d="M150 510q0 274 71.5 487t233.5 478h104l-40 -81q-34 -69 -48 -100.5t-44 -105.5t-44 -133.5l-32.5 -143.5t-27 -178t-8.5 -198q0 -276 58.5 -500.5t195.5 -458.5h-114q-305 500 -305 934z" />
<glyph unicode=")" horiz-adv-x="655" d="M86 1475h115q305 -500 305 -934q0 -274 -72 -487.5t-233 -477.5h-105l40 81l48.5 100.5t44 105.5t44 133t33 143t26.5 178.5t8 198.5q0 274 -58.5 500t-195.5 459z" />
<glyph unicode="*" d="M188 1229l33 86l223 -86v246h103v-240l217 80l33 -94l-226 -74l150 -189l-80 -63l-154 195l-141 -185l-84 53l148 183z" />
<glyph unicode="+" d="M84 430v139h338v424h139v-424h338v-139h-338v-430h-139v430h-338z" />
<glyph unicode="," horiz-adv-x="491" d="M158 0v197h178v-232q0 -86 -47 -156.5t-131 -95.5v88q96 27 96 199h-96z" />
<glyph unicode="-" horiz-adv-x="684" d="M86 430v139h512v-139h-512z" />
<glyph unicode="." horiz-adv-x="491" d="M158 0v197h178v-197h-178z" />
<glyph unicode="/" horiz-adv-x="544" d="M-27 -51l476 1528h120l-475 -1528h-121z" />
<glyph unicode="0" d="M90 725q0 88 4 157.5t16.5 164t40 164t69.5 133t111.5 97.5t160 34t160 -34t112.5 -97.5t70.5 -132t40 -163t16.5 -165t4 -158.5q0 -102 -3 -174t-15.5 -169t-39 -161.5t-69.5 -127t-113.5 -93.5t-162.5 -31q-78 0 -141.5 25.5t-104.5 64.5t-71 102.5t-46 124 t-25.5 144.5t-11.5 146.5t-2 148.5zM260 725q0 -135 7 -227t28.5 -187.5t71 -144.5t125.5 -49q61 0 104 35.5t67.5 89t39 138.5t18.5 163t4 182q0 602 -233 602q-76 0 -125.5 -54t-71 -152.5t-28.5 -187.5t-7 -208z" />
<glyph unicode="1" d="M145 1075v131q172 0 253 53.5t98 215.5h127v-1475h-164v1075h-314z" />
<glyph unicode="2" d="M86 0q0 205 68.5 334t300.5 319q242 201 241 414q0 260 -219 260q-70 0 -115 -25.5t-66.5 -79t-28.5 -109.5t-7 -140h-162v67q0 193 98.5 314t288.5 121q184 0 282.5 -112t98.5 -300q0 -152 -66.5 -258.5t-199.5 -224.5q-223 -201 -274.5 -264.5t-65.5 -168.5h619v-147 h-793z" />
<glyph unicode="3" d="M80 438h162q0 -322 239 -321q117 0 178.5 72.5t61.5 191.5q0 186 -76 245.5t-270 59.5v148q154 0 229.5 55t75.5 196q0 242 -207 242q-109 0 -159 -82t-50 -207h-155q0 190 99 313.5t275 123.5q164 0 263.5 -101.5t99.5 -265.5q0 -127 -54.5 -218t-168.5 -120 q262 -59 262 -371q0 -195 -101.5 -312.5t-302 -117.5t-301 128t-100.5 341z" />
<glyph unicode="4" d="M53 369v149l551 957h152v-959h131v-147h-131v-369h-164v369h-539zM184 516h408v703z" />
<glyph unicode="5" d="M96 385h170q0 -268 217 -268q121 0 178.5 102.5t57.5 255.5q0 346 -246 346q-147 0 -207 -135h-145l88 760h627v-148h-496l-66 -436q106 106 238 107q190 0 283.5 -135.5t93.5 -333.5q0 -104 -20.5 -193.5t-64.5 -168.5t-125 -124t-192 -45q-391 0 -391 416z" />
<glyph unicode="6" d="M86 653q0 86 2 144.5t10 151.5t24.5 157.5t48.5 139.5t77 121t114.5 77t157.5 31q147 0 243.5 -99.5t96.5 -253.5h-162q-4 111 -56 158t-148 47q-57 0 -102.5 -46t-71 -108.5t-43 -149.5t-22.5 -146.5t-9 -122.5h2q41 90 114.5 136t157.5 46q188 0 284.5 -129t96.5 -322 q0 -233 -110.5 -374.5t-280.5 -141.5q-82 0 -147.5 22.5t-109.5 59.5t-76 93.5t-49 111.5t-26.5 130t-12.5 133t-3 134zM266 492q0 -201 61.5 -288t178.5 -87q225 0 225 358q0 313 -237 313q-228 1 -228 -296z" />
<glyph unicode="7" d="M86 1298v148h811v-137q-424 -571 -485 -1309h-185q88 713 537 1298h-678z" />
<glyph unicode="8" d="M90 410q0 164 86 264t193 121v2q-117 23 -175.5 111.5t-58.5 213.5q0 141 89 247t267.5 106t269.5 -106.5t91 -250.5q0 -121 -57.5 -210t-165.5 -111v-2q111 -20 187.5 -118.5t76.5 -266.5q0 -211 -103.5 -326t-297.5 -115q-402 1 -402 441zM260 418q0 -145 50 -223 t182 -78q133 0 182 77.5t49 223.5q0 127 -55.5 212t-175.5 85q-119 0 -175.5 -86t-56.5 -211zM305 1104q0 -242 193 -242q184 0 184 236q0 229 -190 229q-187 0 -187 -223z" />
<glyph unicode="9" d="M84 958q0 233 110.5 375t280.5 142q113 0 195 -44.5t126 -107.5t67.5 -162.5t29.5 -179.5t6 -188q0 -90 -1 -144.5t-9 -152t-23.5 -159t-47.5 -139t-76 -121.5t-113.5 -76t-157.5 -32q-162 0 -256 96.5t-94 256.5h166q0 -205 196 -205q51 0 91 25.5t66 76.5t44 100.5 t29.5 127t15.5 123.5l10 120h-4q-41 -90 -113.5 -136t-156.5 -46q-186 0 -283.5 128.5t-97.5 321.5zM254 989q0 -334 229 -334q127 0 183.5 88t56.5 220q0 92 -17.5 166.5t-75 136t-149.5 61.5q-66 0 -112.5 -30.5t-70.5 -83t-34 -108t-10 -116.5z" />
<glyph unicode=":" horiz-adv-x="491" d="M158 0v197h178v-197h-178zM158 879v196h178v-196h-178z" />
<glyph unicode=";" horiz-adv-x="491" d="M158 0v197h178v-232q0 -86 -47 -156.5t-131 -95.5v88q96 27 96 199h-96zM158 879v196h178v-196h-178z" />
<glyph unicode="&#x3c;" d="M82 436v127l821 455v-144l-667 -374l667 -375v-143z" />
<glyph unicode="=" d="M86 242v139h813v-139h-813zM86 618v140h813v-140h-813z" />
<glyph unicode="&#x3e;" d="M82 -18v143l668 375l-668 374v144l821 -455v-127z" />
<glyph unicode="?" d="M127 1010q0 199 96 332t293 133q188 0 289.5 -97.5t101.5 -271.5q0 -92 -28.5 -170t-59.5 -120t-99.5 -120t-105.5 -125q-23 -31 -31 -76.5t-8 -156.5h-178q0 150 27 225.5t129 179.5q94 96 139 177t45 174q0 94 -53 163.5t-156 69.5q-133 0 -181 -84t-48 -233h-172z M397 0v197h178v-197h-178z" />
<glyph unicode="@" horiz-adv-x="1572" d="M72 721q0 309 221 531.5t530 222.5q281 0 479.5 -178.5t198.5 -450.5q0 -125 -57.5 -256t-168 -224.5t-239.5 -93.5q-137 0 -172 101q-94 -100 -235 -101q-123 0 -199 86t-76 211q0 137 60.5 273.5t176.5 232.5t255 96q72 0 132 -33.5t91 -97.5l29 93h135l-203 -601 q-25 -70 -24 -102q0 -25 16 -41t41 -16q100 0 181 84t119 192.5t38 204.5q0 233 -174 378.5t-410 145.5q-270 0 -457.5 -195.5t-187.5 -467.5q0 -268 191.5 -458.5t457.5 -190.5q154 0 296.5 73.5t230.5 202.5h116q-92 -172 -268 -272.5t-375 -100.5q-317 0 -533 218.5 t-216 533.5zM506 580q0 -76 41 -132.5t112 -56.5q82 0 161 93.5t123 214t44 210.5q0 59 -40 101.5t-99 42.5q-98 0 -180 -82t-122 -189.5t-40 -201.5z" />
<glyph unicode="A" horiz-adv-x="1112" d="M31 0l420 1475h217l413 -1475h-180l-117 424h-465l-108 -424h-180zM358 571h390l-191 785h-4z" />
<glyph unicode="B" horiz-adv-x="1091" d="M154 0v1475h387q201 0 303 -98.5t102 -270.5q0 -125 -56 -210t-159 -112v-4q109 -14 182.5 -111.5t73.5 -246.5q0 -205 -109.5 -313.5t-316.5 -108.5h-407zM317 147h244q133 0 194.5 67t61.5 210q0 276 -270 276h-230v-553zM317 848h203q129 0 192.5 56.5t63.5 191.5 q0 231 -239 231h-220v-479z" />
<glyph unicode="C" horiz-adv-x="1101" d="M113 756q0 748 465 747q201 0 310 -132t109 -339h-163q0 324 -265 324q-68 0 -120 -29t-81.5 -85t-48 -109.5t-25.5 -134t-9 -125t-2 -113.5q0 -90 3 -153.5t11 -145.5t27.5 -138.5t50.5 -107.5t80 -76.5t114 -25.5q145 0 197.5 103t67.5 316h163q-6 -109 -20 -190.5 t-44 -155t-75 -121t-114.5 -74t-161.5 -26.5q-104 0 -185.5 33t-130.5 96.5t-81.5 134t-47 169t-19.5 177.5t-5 181z" />
<glyph unicode="D" horiz-adv-x="1183" d="M154 0v1475h405q133 0 229.5 -43t150.5 -110t85 -170t39 -196.5t8 -218.5q0 -737 -483 -737h-434zM317 147h263q178 0 249.5 142.5t71.5 476.5q0 281 -68.5 421t-252.5 140h-263v-1180z" />
<glyph unicode="E" horiz-adv-x="991" d="M154 0v1475h739v-148h-576v-479h539v-148h-539v-553h578v-147h-741z" />
<glyph unicode="F" horiz-adv-x="874" d="M154 0v1475h692v-148h-529v-479h492v-148h-492v-700h-163z" />
<glyph unicode="G" horiz-adv-x="1159" d="M113 713q0 123 9 222t41 209.5t83 185.5t144 124t218 49q207 0 314.5 -119.5t117.5 -336.5h-166q0 143 -65.5 226t-200.5 83q-104 0 -172.5 -50.5t-99.5 -147.5t-42 -195.5t-11 -239.5q0 -102 4 -176t14 -147.5t30.5 -123t51.5 -88t77 -57t107 -18.5q86 0 148.5 31.5 t95.5 75.5t52.5 117t23.5 132t4 141h-330v148h494v-758h-127v219h-4q-31 -123 -126.5 -188.5t-222.5 -65.5q-104 0 -183 29t-128 85t-80.5 119.5t-46 158t-19.5 172.5t-5 184z" />
<glyph unicode="H" horiz-adv-x="1198" d="M154 0v1475h163v-627h564v627h163v-1475h-163v700h-564v-700h-163z" />
<glyph unicode="I" horiz-adv-x="471" d="M154 0v1475h163v-1475h-163z" />
<glyph unicode="J" horiz-adv-x="886" d="M53 360v97h164v-86q0 -49 2 -78t10.5 -68t25.5 -60.5t51 -36.5t81 -15q113 0 147.5 66.5t34.5 187.5v1108h164v-1117q0 -213 -88 -303t-254 -90q-184 0 -261 99t-77 296z" />
<glyph unicode="K" horiz-adv-x="1103" d="M154 0v1475h163v-758l537 758h205l-471 -617l485 -858h-190l-394 729l-172 -215v-514h-163z" />
<glyph unicode="L" horiz-adv-x="974" d="M154 0v1475h163v-1328h603v-147h-766z" />
<glyph unicode="M" horiz-adv-x="1538" d="M154 0v1475h288l289 -1151q18 -82 31 -218h4q23 170 37 220l293 1149h288v-1475h-163v1214q0 33 3 96.5t3 90.5h-6l-50 -197l-309 -1204h-194l-310 1221l-43 180h-4q0 -41 3 -100.5t3 -90.5v-1210h-163z" />
<glyph unicode="N" horiz-adv-x="1206" d="M154 0v1475h266l418 -1207q29 -82 51 -162h6q-6 160 -6 164v1205h164v-1475h-269l-411 1180q-35 96 -56 221h-4q4 -147 4 -225v-1176h-163z" />
<glyph unicode="O" horiz-adv-x="1198" d="M113 739q0 94 6 174t23.5 173.5t52 163t86 130t132.5 92t185 31.5q125 0 216 -48t142.5 -120.5t82 -181.5t38.5 -203t8 -211q0 -137 -9 -238.5t-38.5 -208t-82 -174t-142.5 -110.5t-215 -43t-215 43t-141.5 110.5t-81 174t-38.5 208t-9 238.5zM283 766 q0 -350 62.5 -501.5t252.5 -151.5t253.5 151.5t63.5 499.5q0 133 -14 233.5t-48 184.5t-99.5 129t-159.5 45q-92 0 -154.5 -44t-96.5 -129t-47 -184.5t-13 -232.5z" />
<glyph unicode="P" horiz-adv-x="1120" d="M154 0v1475h409q209 0 327 -102.5t118 -313.5q0 -240 -126 -337t-350 -97h-215v-625h-163zM317 772h160q188 0 274.5 55.5t86.5 231.5q0 150 -78 209t-236 59h-207v-555z" />
<glyph unicode="Q" horiz-adv-x="1200" d="M113 750q0 117 8 210t37.5 199.5t80 177t141.5 118.5t216 48q127 0 219 -46t143.5 -115.5t82 -175t38.5 -197.5t8 -209q0 -76 -6 -170t-34.5 -224t-73.5 -190l170 -141l-84 -103l-164 138q-47 -47 -130 -76t-165 -29q-125 0 -216 44t-142.5 112.5t-81 177.5t-38.5 211.5 t-9 239.5zM283 702q0 -135 12 -232t44 -183t96.5 -130t160.5 -44q102 0 176 53l-145 117l86 108l137 -110q27 43 47.5 175t20.5 249q0 166 -12.5 275.5t-46.5 200.5t-99.5 133t-165.5 42q-80 0 -136.5 -31t-91 -81t-53 -137t-24.5 -179.5t-6 -225.5z" />
<glyph unicode="R" horiz-adv-x="1163" d="M154 0v1475h448q201 0 314.5 -100.5t113.5 -301.5q0 -131 -71.5 -226t-194.5 -114v-4q117 -14 184.5 -105.5t67.5 -228.5q0 -63 1 -113.5t5 -85t6 -57t8 -42t9.5 -27t10.5 -20.5t9 -17v-33h-166q-47 139 -47 342q0 307 -268 307h-267v-649h-163zM317 797h285 q104 0 181 61.5t77 208.5t-70.5 203.5t-193.5 56.5h-279v-530z" />
<glyph unicode="S" horiz-adv-x="1093" d="M100 467h164q0 -174 62.5 -264t216.5 -90q131 0 205.5 60t74.5 185q0 131 -55 188.5t-184 106.5l-217 82q-238 90 -238 387q0 174 110.5 277.5t290.5 103.5q193 0 302.5 -106.5t117.5 -309.5h-164q0 125 -61 197t-182 72q-127 0 -185.5 -65.5t-58.5 -168.5 q0 -100 28.5 -151t100.5 -78l236 -88q330 -125 329 -422q0 -205 -119.5 -311.5t-334.5 -106.5q-211 0 -325 131t-114 371z" />
<glyph unicode="T" horiz-adv-x="985" d="M29 1327v148h927v-148h-381v-1327h-163v1327h-383z" />
<glyph unicode="U" horiz-adv-x="1191" d="M154 354v1121h163v-1061q0 -55 7.5 -97.5t33 -94.5t86 -80.5t152.5 -28.5t152.5 28.5t86 80.5t32.5 94t7 98v1061h164v-1121q0 -193 -117.5 -291t-324.5 -98t-324.5 98t-117.5 291z" />
<glyph unicode="V" horiz-adv-x="1093" d="M23 1475h180l340 -1356h4l344 1356h180l-424 -1475h-203z" />
<glyph unicode="W" horiz-adv-x="1636" d="M33 1475h180l193 -1016q31 -162 43 -340h4q33 260 47 327l217 1029h203l194 -1016q18 -102 43 -340h4q33 264 47 327l215 1029h181l-347 -1475h-202l-197 1001q-23 115 -41 363h-8q-29 -291 -45 -363l-215 -1001h-201z" />
<glyph unicode="X" horiz-adv-x="1083" d="M41 0l408 758l-398 717h182l310 -576l309 576h182l-395 -717l403 -758h-186l-313 616l-320 -616h-182z" />
<glyph unicode="Y" horiz-adv-x="1075" d="M12 1475h181l344 -740l346 740h180l-445 -904v-571h-163v571z" />
<glyph unicode="Z" horiz-adv-x="1067" d="M96 0v141l697 1186h-678v148h846v-142l-697 -1186h707v-147h-875z" />
<glyph unicode="[" horiz-adv-x="655" d="M197 -412v1887h346v-123h-191v-1641h191v-123h-346z" />
<glyph unicode="\" horiz-adv-x="491" d="M-61 1475h114l500 -1475h-115z" />
<glyph unicode="]" horiz-adv-x="653" d="M113 -289h192v1641h-192v123h348v-1887h-348v123z" />
<glyph unicode="^" d="M137 653l305 822h97l309 -822h-107l-252 666l-247 -666h-105z" />
<glyph unicode="_" d="M0 -119h983v-114h-983v114z" />
<glyph unicode="`" horiz-adv-x="655" d="M70 1503h215l174 -276h-131z" />
<glyph unicode="a" horiz-adv-x="888" d="M82 272q0 139 60.5 209t211.5 129q119 45 195 82q41 18 41 129q0 94 -37 132t-129 38q-86 0 -123 -47t-37 -145h-139q0 324 315 323q154 0 229.5 -78.5t75.5 -199.5v-645q0 -88 60 -88q18 0 35 4v-115q-20 -12 -64 -12q-80 0 -115.5 28.5t-52.5 130.5h-4 q-29 -74 -97.5 -125t-144.5 -51q-280 0 -280 301zM244 279q0 -168 145 -168q201 0 201 221v264q-37 -23 -96.5 -48.5t-97.5 -44t-75.5 -48t-57 -73.5t-19.5 -103z" />
<glyph unicode="b" horiz-adv-x="978" d="M143 0v1475h156v-494h4q88 141 229 141q344 0 345 -559q0 -98 -8.5 -180t-31 -161t-59.5 -132t-97 -86t-142 -33q-84 0 -138.5 27t-99.5 113h-2v-111h-156zM299 551q0 -66 1 -108t7 -100t19.5 -95t35 -74t57.5 -54.5t83 -17.5q117 0 165 115t48 348q0 426 -215 426 q-68 0 -111 -39t-61.5 -113.5t-23.5 -136t-5 -151.5z" />
<glyph unicode="c" horiz-adv-x="888" d="M102 532q0 590 379 590q158 0 245 -105.5t87 -264.5h-147q0 240 -187 239q-68 0 -111.5 -38t-65 -108.5t-30 -143t-8.5 -169.5q0 -68 2 -114.5t14.5 -111t33 -105.5t61.5 -70t98 -29q49 0 84 17.5t54.5 41t31.5 65.5t16.5 74t6.5 81h147q0 -174 -80 -292t-250 -118 q-96 0 -166.5 33t-111.5 83t-64.5 127t-31 150.5t-7.5 167.5z" />
<glyph unicode="d" horiz-adv-x="985" d="M102 573q0 248 84 398.5t244 150.5q82 0 138.5 -33.5t113.5 -107.5h4v494h156v-1475h-156v135h-2q-49 -96 -105.5 -130t-156.5 -34q-98 0 -163.5 47.5t-98.5 137.5t-45.5 188t-12.5 229zM264 549q0 -76 3 -128t14.5 -117.5t33 -105.5t61.5 -68t97 -28q117 0 165 115 t48 348q0 426 -215 426q-68 0 -112 -40t-63.5 -112.5t-25.5 -137t-6 -152.5z" />
<glyph unicode="e" horiz-adv-x="897" d="M102 549q0 573 351 573q90 0 154.5 -37.5t100 -93t56 -142.5t26 -163t5.5 -176h-531q0 -86 3 -139.5t14.5 -110.5t32 -88t57.5 -50.5t90 -19.5q178 0 178 263h156q0 -172 -83 -283t-247 -111q-182 0 -272.5 130.5t-90.5 447.5zM264 641h369q0 350 -178 350 q-191 0 -191 -350z" />
<glyph unicode="f" horiz-adv-x="546" d="M25 961v131h159v96q0 154 47.5 222.5t200.5 68.5q25 0 78 -4v-132q-41 4 -61 5q-61 0 -85 -29t-24 -111v-116h170v-131h-170v-961h-156v961h-159z" />
<glyph unicode="g" horiz-adv-x="985" d="M102 549q0 573 336 573q166 0 244 -153h4v123h156v-1088q0 -377 -385 -377q-137 0 -224.5 66.5t-101.5 202.5h152q16 -137 166 -138q131 0 184 58.5t53 210.5v100h-14q-49 -84 -102.5 -120t-129.5 -36q-182 0 -260 138.5t-78 439.5zM264 549q0 -76 3 -128t14.5 -117.5 t33 -105.5t61.5 -68t97 -28q117 0 165 115t48 348q0 426 -215 426q-68 0 -112 -40t-63.5 -112.5t-25.5 -137t-6 -152.5z" />
<glyph unicode="h" horiz-adv-x="985" d="M143 0v1475h156v-502h2q104 150 270 149q127 0 199 -69.5t72 -208.5v-844h-156v801q0 190 -164 190q-98 0 -160.5 -67.5t-62.5 -167.5v-756h-156z" />
<glyph unicode="i" horiz-adv-x="442" d="M143 0v1094h156v-1094h-156zM143 1278v197h156v-197h-156z" />
<glyph unicode="j" horiz-adv-x="442" d="M23 -227q12 -4 28 -4q57 0 74.5 43t17.5 120v1162h156v-1137q0 -193 -58.5 -261.5t-217.5 -68.5v146zM143 1278v197h156v-197h-156z" />
<glyph unicode="k" horiz-adv-x="901" d="M143 0v1475h156v-891l379 510h184l-338 -426l348 -668h-182l-272 545l-119 -156v-389h-156z" />
<glyph unicode="l" horiz-adv-x="442" d="M143 0v1475h156v-1475h-156z" />
<glyph unicode="m" horiz-adv-x="1527" d="M143 0v1094h156v-121h2q104 150 270 149q203 0 256 -166q106 166 287 166q125 0 197.5 -68.5t72.5 -209.5v-844h-155v786q0 100 -35 152.5t-129 52.5t-158.5 -64.5t-64.5 -185.5v-741h-156v801q0 190 -168 190q-88 0 -153.5 -65.5t-65.5 -184.5v-741h-156z" />
<glyph unicode="n" horiz-adv-x="985" d="M143 0v1094h156v-121h2q104 150 270 149q127 0 199 -69.5t72 -208.5v-844h-156v801q0 190 -164 190q-98 0 -160.5 -67.5t-62.5 -167.5v-756h-156z" />
<glyph unicode="o" horiz-adv-x="987" d="M102 551q0 571 391.5 571t391.5 -573q0 -317 -99.5 -447.5t-291.5 -130.5q-190 0 -291 130.5t-101 449.5zM264 535q0 -211 51.5 -322t178.5 -111q129 0 179 110t50 323q0 248 -53.5 352t-175.5 104q-125 0 -177.5 -104t-52.5 -352z" />
<glyph unicode="p" horiz-adv-x="985" d="M143 -381v1475h156v-123h2q35 72 98.5 111.5t124.5 39.5q358 0 359 -557q0 -133 -16.5 -234.5t-54.5 -185.5t-107.5 -129t-169.5 -45q-139 0 -236 142v-494h-156zM299 549q0 -76 3 -128t14.5 -117.5t33 -105.5t61.5 -68t97 -28q117 0 165 115t48 348q0 426 -215 426 q-68 0 -112 -40t-63.5 -112.5t-25.5 -137t-6 -152.5z" />
<glyph unicode="q" horiz-adv-x="985" d="M102 530q0 170 31 298t108.5 211t194.5 83q160 0 248 -141h2v113h156v-1475h-156v500h-4q-53 -78 -106.5 -113t-124.5 -35q-172 0 -260.5 144.5t-88.5 414.5zM264 549q0 -76 3 -128t14.5 -117.5t33 -105.5t61.5 -68t97 -28q117 0 165 115t48 348q0 426 -215 426 q-68 0 -112 -40t-63.5 -112.5t-25.5 -137t-6 -152.5z" />
<glyph unicode="r" horiz-adv-x="638" d="M143 0v1094h156v-179h2q45 98 108.5 145.5t163.5 47.5q10 0 43 -4v-152q-35 6 -65 6q-119 0 -185.5 -80.5t-66.5 -213.5v-664h-156z" />
<glyph unicode="s" horiz-adv-x="872" d="M88 319h148q0 -111 40.5 -164t143.5 -53q209 0 209 185q0 39 -12.5 69.5t-46 53l-52 34t-73 31t-66.5 25.5q-139 59 -202.5 126.5t-63.5 190.5q0 141 84 223t225 82q156 0 243 -83t87 -238h-152q0 98 -41 144t-133 46q-156 0 -156 -168q0 -82 47.5 -121.5t149.5 -76.5 q74 -27 121 -49.5t99 -60.5t78 -92t26 -126q0 -156 -94.5 -241t-268.5 -85q-184 0 -262 84t-78 264z" />
<glyph unicode="t" horiz-adv-x="546" d="M18 963v131h152v297h156v-297h180v-131h-180v-746q0 -51 13 -68.5t58 -17.5h105v-131h-170q-84 0 -123 33t-39 147v783h-152z" />
<glyph unicode="u" horiz-adv-x="968" d="M143 250v844h156v-850q0 -74 29.5 -109t109.5 -35q96 0 164 68t68 223v703h155v-1094h-155v143h-4q-39 -82 -109 -128t-149 -46q-127 0 -196 70t-69 211z" />
<glyph unicode="v" horiz-adv-x="872" d="M25 1094h161l248 -963h4l248 963h162l-330 -1094h-168z" />
<glyph unicode="w" horiz-adv-x="1312" d="M47 1094h152l198 -963h4l174 963h160l187 -963h4l190 963h148l-246 -1094h-184l-175 932h-4l-170 -932h-182z" />
<glyph unicode="x" horiz-adv-x="878" d="M20 0l334 563l-315 531h162l250 -418l235 418h162l-316 -531l326 -563h-160l-254 451l-264 -451h-160z" />
<glyph unicode="y" horiz-adv-x="868" d="M31 1094h162l258 -873h4l241 873h162l-340 -1100q-29 -94 -49 -144.5t-58 -111t-94.5 -86t-134.5 -25.5q-55 0 -110 19v137q51 -25 114 -25q76 0 118 57.5t75 166.5z" />
<glyph unicode="z" horiz-adv-x="794" d="M61 0v123l508 840h-487v131h647v-129l-510 -834h514v-131h-672z" />
<glyph unicode="{" horiz-adv-x="538" d="M14 645v4q94 6 136.5 63.5t42.5 141.5v365q0 141 72.5 198.5t258.5 57.5v-5q-102 -29 -139 -76.5t-37 -136.5v-366q0 -104 -40 -162.5t-156 -79.5v-4q121 -27 158.5 -88t37.5 -180v-340q0 -80 33 -131t137 -86l2 -4q-205 0 -266 59t-61 227v324q-1 192 -179 219z" />
<glyph unicode="|" horiz-adv-x="491" d="M182 0v1475h127v-1475h-127z" />
<glyph unicode="}" horiz-adv-x="540" d="M16 -182q102 29 140.5 79t38.5 138v371q0 102 38.5 156t155.5 77v4q-119 27 -156.5 89.5t-37.5 182.5v340q0 84 -40 135.5t-139 79.5v5q195 0 264.5 -61.5t69.5 -225.5v-328q0 -193 176 -217v-4q-96 -6 -136 -57.5t-40 -145.5v-366q0 -145 -73.5 -199.5t-260.5 -54.5v2z " />
<glyph unicode="~" d="M86 422q47 104 99.5 166.5t129.5 62.5q57 0 188.5 -67.5t168.5 -67.5q88 0 159 162l68 -92q-96 -217 -229 -217q-53 0 -178 67.5t-175 67.5q-33 0 -59.5 -19.5t-38.5 -37t-34.5 -62.5t-30.5 -57z" />
<glyph unicode="&#xa3;" d="M59 90q113 92 171.5 181t58.5 212q0 88 -43 181h-187v86h148q-104 190 -105 331q0 186 108.5 290t313.5 104q201 0 298.5 -118t97.5 -331h-164q0 145 -56.5 223t-187.5 78q-119 0 -179.5 -72.5t-60.5 -193.5q0 -123 103 -311h321v-86h-284q33 -59 32 -146 q0 -215 -221 -393l4 -4q94 59 209 59q66 0 160 -27.5t131 -27.5q80 0 172 65l55 -131q-68 -51 -114.5 -66.5t-130.5 -15.5q-45 0 -150.5 37t-191.5 37q-96 0 -228 -82z" />
<glyph unicode="&#xa9;" horiz-adv-x="1572" d="M16 737q0 315 226.5 541.5t545.5 226.5q317 0 544 -225t227 -541q0 -322 -225.5 -549t-542.5 -227q-319 0 -547 226t-228 548zM133 741q0 -274 191.5 -468.5t464 -194.5t463 192.5t190.5 466.5q0 272 -190.5 463t-463.5 191q-274 0 -464.5 -189t-190.5 -461zM393 743.5 q0 192.5 115 317.5t307 125q141 0 241.5 -78t123.5 -215h-115q-14 90 -84 144.5t-164 54.5q-145 0 -226 -98.5t-81 -248.5q0 -147 84 -251.5t227 -104.5q94 0 165 56.5t79 150.5h115q-14 -133 -118 -217t-241 -84q-190 0 -309 128t-119 320.5z" />
<glyph unicode="&#xab;" d="M168 553v121l297 301v-164l-197 -201l197 -200v-164zM518 553v121l297 301v-164l-197 -201l197 -200v-164z" />
<glyph unicode="&#xad;" horiz-adv-x="684" d="M86 430v139h512v-139h-512z" />
<glyph unicode="&#xae;" horiz-adv-x="1572" d="M16 737q0 317 226.5 542.5t545.5 225.5q317 0 544 -225t227 -543q0 -322 -225.5 -548t-542.5 -226q-319 0 -547 226t-228 548zM133 737q0 -274 191.5 -466.5t464 -192.5t463 191.5t190.5 465.5q0 272 -190.5 464t-463 192t-464 -191t-191.5 -463zM500 305v864h379 q59 0 110 -10t97.5 -35.5t73 -72.5t26.5 -113q0 -121 -77 -178.5t-196 -57.5l258 -397h-127l-243 397h-191v-397h-110zM610 784h254q211 0 211 158q0 86 -61.5 115.5t-159.5 29.5h-244v-303z" />
<glyph unicode="&#xbb;" d="M168 246v164l197 200l-197 201v164l297 -307v-121zM518 246v164l197 200l-197 201v164l297 -307v-121z" />
<glyph unicode="&#x2c6;" d="M137 653l305 822h97l309 -822h-107l-252 666l-247 -666h-105z" />
<glyph unicode="&#x410;" horiz-adv-x="1112" d="M31 0l420 1475h217l413 -1475h-180l-117 424h-465l-108 -424h-180zM358 571h390l-191 785h-4z" />
<glyph unicode="&#x411;" horiz-adv-x="1091" d="M154 0v1475h733v-148h-570v-479h195q106 0 187 -20.5t148.5 -66.5t103.5 -133t36 -212q0 -213 -116.5 -314.5t-325.5 -101.5h-391zM317 147h187q158 0 235.5 59.5t77.5 209.5q0 166 -87 225t-273 59h-140v-553z" />
<glyph unicode="&#x412;" horiz-adv-x="1091" d="M154 0v1475h387q201 0 303 -98.5t102 -270.5q0 -125 -56 -210t-159 -112v-4q109 -14 182.5 -111.5t73.5 -246.5q0 -205 -109.5 -313.5t-316.5 -108.5h-407zM317 147h244q133 0 194.5 67t61.5 210q0 276 -270 276h-230v-553zM317 848h203q129 0 192.5 56.5t63.5 191.5 q0 231 -239 231h-220v-479z" />
<glyph unicode="&#x413;" horiz-adv-x="874" d="M154 0v1475h692v-148h-529v-1327h-163z" />
<glyph unicode="&#x414;" horiz-adv-x="1239" d="M43 147h98q98 168 127 375t29 576v377h782v-1328h117v-491h-156v344h-841v-344h-156v491zM317 147h598v1180h-454v-383q-1 -508 -144 -797z" />
<glyph unicode="&#x415;" horiz-adv-x="991" d="M154 0v1475h739v-148h-576v-479h539v-148h-539v-553h578v-147h-741z" />
<glyph unicode="&#x416;" horiz-adv-x="1736" d="M31 0l485 858l-471 617h205l536 -758v758h164v-758l537 758h205l-471 -617l485 -858h-190l-394 729l-172 -215v-514h-164v514l-172 215l-393 -729h-190z" />
<glyph unicode="&#x417;" horiz-adv-x="1116" d="M102 459h164q10 -176 75 -261t222 -85q104 0 170 48t87.5 112.5t21.5 144.5q0 111 -74 196.5t-195 85.5h-139v148h109q242 0 241 254q0 121 -63.5 186.5t-177.5 65.5q-104 0 -175 -73t-83 -196h-164q25 195 138.5 305.5t299.5 110.5q172 0 283.5 -103.5t111.5 -260.5 q0 -262 -227 -351q129 -25 207 -127t78 -262q0 -70 -19.5 -137t-65.5 -137t-141.5 -114t-226.5 -44q-231 0 -336 128t-121 366z" />
<glyph unicode="&#x418;" horiz-adv-x="1226" d="M154 0v1475h163v-1205q0 -57 -4 -164h4q4 10 22.5 82t37.5 121l459 1166h237v-1475h-164v1176q0 78 4 225h-4q-27 -160 -57 -240l-461 -1161h-237z" />
<glyph unicode="&#x419;" horiz-adv-x="1226" d="M154 0v1475h163v-1205q0 -57 -4 -164h4q4 10 22.5 82t37.5 121l459 1166h237v-1475h-164v1176q0 78 4 225h-4q-27 -160 -57 -240l-461 -1161h-237zM330 1817h84q35 -141 188 -142q78 0 123 32t61 110h84q0 -127 -75.5 -189.5t-200.5 -62.5q-115 0 -189.5 63.5 t-74.5 188.5z" />
<glyph unicode="&#x41a;" horiz-adv-x="1103" d="M154 0v1475h163v-758l537 758h205l-471 -617l485 -858h-190l-394 729l-172 -215v-514h-163z" />
<glyph unicode="&#x41b;" horiz-adv-x="1234" d="M31 -6v145q29 -10 63 -10q106 0 135 153.5t29 548.5v644h823v-1475h-163v1327h-496v-584q0 -90 -1 -147t-7 -146.5t-16.5 -146.5t-33 -123.5t-52 -105.5t-77 -65.5t-106.5 -26.5q-49 0 -98 12z" />
<glyph unicode="&#x41c;" horiz-adv-x="1538" d="M154 0v1475h288l289 -1151q18 -82 31 -218h4q23 170 37 220l293 1149h288v-1475h-163v1214q0 33 3 96.5t3 90.5h-6l-50 -197l-309 -1204h-194l-310 1221l-43 180h-4q0 -41 3 -100.5t3 -90.5v-1210h-163z" />
<glyph unicode="&#x41d;" horiz-adv-x="1198" d="M154 0v1475h163v-627h564v627h163v-1475h-163v700h-564v-700h-163z" />
<glyph unicode="&#x41e;" horiz-adv-x="1198" d="M113 739q0 94 6 174t23.5 173.5t52 163t86 130t132.5 92t185 31.5q125 0 216 -48t142.5 -120.5t82 -181.5t38.5 -203t8 -211q0 -137 -9 -238.5t-38.5 -208t-82 -174t-142.5 -110.5t-215 -43t-215 43t-141.5 110.5t-81 174t-38.5 208t-9 238.5zM283 766 q0 -350 62.5 -501.5t252.5 -151.5t253.5 151.5t63.5 499.5q0 133 -14 233.5t-48 184.5t-99.5 129t-159.5 45q-92 0 -154.5 -44t-96.5 -129t-47 -184.5t-13 -232.5z" />
<glyph unicode="&#x41f;" horiz-adv-x="1198" d="M154 0v1475h890v-1475h-163v1327h-564v-1327h-163z" />
<glyph unicode="&#x420;" horiz-adv-x="1120" d="M154 0v1475h409q209 0 327 -102.5t118 -313.5q0 -240 -126 -337t-350 -97h-215v-625h-163zM317 772h160q188 0 274.5 55.5t86.5 231.5q0 150 -78 209t-236 59h-207v-555z" />
<glyph unicode="&#x421;" horiz-adv-x="1101" d="M113 756q0 748 465 747q201 0 310 -132t109 -339h-163q0 324 -265 324q-68 0 -120 -29t-81.5 -85t-48 -109.5t-25.5 -134t-9 -125t-2 -113.5q0 -90 3 -153.5t11 -145.5t27.5 -138.5t50.5 -107.5t80 -76.5t114 -25.5q145 0 197.5 103t67.5 316h163q-6 -109 -20 -190.5 t-44 -155t-75 -121t-114.5 -74t-161.5 -26.5q-104 0 -185.5 33t-130.5 96.5t-81.5 134t-47 169t-19.5 177.5t-5 181z" />
<glyph unicode="&#x422;" horiz-adv-x="985" d="M29 1327v148h927v-148h-381v-1327h-163v1327h-383z" />
<glyph unicode="&#x423;" horiz-adv-x="1034" d="M31 1475h174l344 -1024l315 1024h172l-405 -1231q-51 -158 -115.5 -218.5t-159.5 -60.5q-84 0 -125 19v147q35 -18 109 -18q45 0 72.5 28.5t52.5 110.5z" />
<glyph unicode="&#x424;" horiz-adv-x="1513" d="M104 754q0 281 156 425t373 144h43v152h164v-152h41q102 0 194 -33t169 -99.5t122 -179t45 -257.5q0 -285 -152.5 -430.5t-379.5 -145.5h-39v-178h-164v178h-41q-227 0 -379 144.5t-152 431.5zM274 758q0 -211 98.5 -321.5t260.5 -110.5h43v850h-41q-160 0 -260.5 -105.5 t-100.5 -312.5zM840 326h43q162 0 260 110.5t98 321.5q0 207 -100.5 312.5t-259.5 105.5h-41v-850z" />
<glyph unicode="&#x425;" horiz-adv-x="1083" d="M41 0l408 758l-398 717h182l310 -576l309 576h182l-395 -717l403 -758h-186l-313 616l-320 -616h-182z" />
<glyph unicode="&#x426;" horiz-adv-x="1204" d="M154 0v1475h163v-1328h564v1328h163v-1328h119v-491h-155v344h-854z" />
<glyph unicode="&#x427;" horiz-adv-x="1138" d="M143 1083v392h164v-373q0 -150 55.5 -202t215.5 -52q152 0 243 16v611h164v-1475h-164v719q-109 -18 -276 -19q-203 0 -302.5 86t-99.5 297z" />
<glyph unicode="&#x428;" horiz-adv-x="1716" d="M154 0v1475h163v-1328h459v1328h164v-1328h459v1328h164v-1475h-1409z" />
<glyph unicode="&#x429;" horiz-adv-x="1722" d="M154 0v1475h163v-1328h459v1328h164v-1328h459v1328h164v-1328h118v-491h-155v344h-1372z" />
<glyph unicode="&#x42a;" horiz-adv-x="1228" d="M-10 1327v148h465v-627h194q106 0 187.5 -20.5t149 -66.5t103 -133t35.5 -212q0 -213 -116.5 -314.5t-325.5 -101.5h-391v1327h-301zM455 147h186q158 0 235.5 59.5t77.5 209.5q0 166 -87 225t-273 59h-139v-553z" />
<glyph unicode="&#x42b;" horiz-adv-x="1529" d="M154 0v1475h163v-627h195q106 0 187 -20.5t148.5 -66.5t103.5 -133t36 -212q0 -213 -116.5 -314.5t-325.5 -101.5h-391zM317 147h187q158 0 235.5 59.5t77.5 209.5q0 166 -87 225t-273 59h-140v-553zM1212 0v1475h164v-1475h-164z" />
<glyph unicode="&#x42c;" horiz-adv-x="1091" d="M154 0v1475h163v-627h195q106 0 187 -20.5t148.5 -66.5t103.5 -133t36 -212q0 -213 -116.5 -314.5t-325.5 -101.5h-391zM317 147h187q158 0 235.5 59.5t77.5 209.5q0 166 -87 225t-273 59h-140v-553z" />
<glyph unicode="&#x42d;" horiz-adv-x="1095" d="M98 1032q10 217 122 344t310 127q113 0 198 -47t132 -117.5t76 -175t38 -199t9 -208.5q0 -104 -4 -179t-17.5 -176.5t-44 -171t-77.5 -134t-125 -97.5t-180 -33q-434 0 -435 567h162q4 -100 16.5 -168.5t40 -130t79 -91t128.5 -29.5q90 0 149.5 45t88.5 133t39 182 t10 227h-389v148h389q0 508 -287 508q-242 0 -264 -324h-164z" />
<glyph unicode="&#x42e;" horiz-adv-x="1656" d="M154 0v1475h163v-627h256q0 129 22.5 236.5t74 207t151 155.5t238.5 56q125 0 216 -49t141 -120.5t81 -180.5t39 -203t8 -211q0 -137 -9 -238.5t-39 -208t-81 -174t-141 -110.5t-215 -43q-121 0 -210 40t-141.5 104.5t-83 164t-41 198.5t-10.5 228h-256v-700h-163z M743 764q0 -174 11.5 -283.5t44 -198.5t96 -129t164.5 -40q190 0 252.5 150.5t62.5 500.5q0 133 -14 232.5t-48 184.5t-98.5 130t-158.5 45q-121 0 -192.5 -83t-95.5 -206t-24 -303z" />
<glyph unicode="&#x42f;" horiz-adv-x="1089" d="M55 0l332 647q-137 43 -210 138.5t-73 273.5q0 213 117 314.5t326 101.5h389v-1475h-164v627h-213l-321 -627h-183zM274 1059q0 -166 87.5 -225.5t271.5 -59.5h139v553h-186q-158 0 -235 -59t-77 -209z" />
<glyph unicode="&#x430;" horiz-adv-x="888" d="M82 272q0 139 60.5 209t211.5 129q119 45 195 82q41 18 41 129q0 94 -37 132t-129 38q-86 0 -123 -47t-37 -145h-139q0 324 315 323q154 0 229.5 -78.5t75.5 -199.5v-645q0 -88 60 -88q18 0 35 4v-115q-20 -12 -64 -12q-80 0 -115.5 28.5t-52.5 130.5h-4 q-29 -74 -97.5 -125t-144.5 -51q-280 0 -280 301zM244 279q0 -168 145 -168q201 0 201 221v264q-37 -23 -96.5 -48.5t-97.5 -44t-75.5 -48t-57 -73.5t-19.5 -103z" />
<glyph unicode="&#x431;" horiz-adv-x="987" d="M102 625q0 344 89.5 514t265.5 215q82 20 121.5 32.5t78.5 36t45 52.5h127q-23 -102 -97.5 -153.5t-213.5 -82.5q-115 -27 -183.5 -115t-80.5 -227q94 170 262 170q172 0 270.5 -138t98.5 -382q0 -291 -95.5 -433.5t-295.5 -142.5q-213 0 -302.5 159t-89.5 495zM264 547 q0 -223 54.5 -334t175 -111t175 111t54.5 334q0 174 -58.5 281.5t-171 107.5t-171 -105.5t-58.5 -283.5z" />
<glyph unicode="&#x432;" horiz-adv-x="921" d="M143 0v1094h355q127 0 211 -72t84 -188q0 -102 -47.5 -171t-122.5 -90v-4q197 -47 196 -272q0 -135 -78.5 -216t-191.5 -81h-406zM299 131h182q104 0 142.5 44t38.5 147q0 188 -183 188h-180v-379zM299 641h164q90 0 131 39t41 127q0 156 -166 156h-170v-322z" />
<glyph unicode="&#x433;" horiz-adv-x="749" d="M143 0v1094h578v-131h-422v-963h-156z" />
<glyph unicode="&#x434;" horiz-adv-x="1007" d="M41 131h94q76 158 102.5 278.5t26.5 323.5v361h598v-963h105v-428h-144v297h-639v-297h-143v428zM295 131h412v832h-293v-314q0 -160 -25.5 -267.5t-93.5 -250.5z" />
<glyph unicode="&#x435;" horiz-adv-x="897" d="M102 549q0 573 351 573q90 0 154.5 -37.5t100 -93t56 -142.5t26 -163t5.5 -176h-531q0 -86 3 -139.5t14.5 -110.5t32 -88t57.5 -50.5t90 -19.5q178 0 178 263h156q0 -172 -83 -283t-247 -111q-182 0 -272.5 130.5t-90.5 447.5zM264 641h369q0 350 -178 350 q-191 0 -191 -350z" />
<glyph unicode="&#x436;" horiz-adv-x="1343" d="M20 0l349 668l-338 426h184l379 -510v510h156v-510l378 510h185l-338 -426l348 -668h-182l-273 545l-118 -156v-389h-156v389l-119 156l-272 -545h-183z" />
<glyph unicode="&#x437;" horiz-adv-x="866" d="M61 344h144q12 -135 59 -188.5t144 -53.5q199 0 198 203q0 90 -48 147.5t-134 57.5h-86v131h84q68 0 114 49t46 131q0 72 -43 121t-131.5 49t-135.5 -52t-51 -138h-143q6 135 98 228t236 93q137 0 230 -78.5t93 -195.5q0 -106 -53 -175t-141 -93v-5q90 -18 156.5 -87.5 t66.5 -192.5q0 -145 -94.5 -234.5t-251.5 -89.5q-170 0 -256.5 90t-100.5 283z" />
<glyph unicode="&#x438;" horiz-adv-x="1011" d="M143 0v1094h156v-832q0 -53 -16 -131h2q20 100 32 131l363 832h188v-1094h-155v829q0 43 16 136h-2q-18 -104 -33 -136l-362 -829h-189z" />
<glyph unicode="&#x439;" horiz-adv-x="1011" d="M143 0v1094h156v-832q0 -53 -16 -131h2q20 100 32 131l363 832h188v-1094h-155v829q0 43 16 136h-2q-18 -104 -33 -136l-362 -829h-189zM262 1448h80q29 -137 170 -137q139 0 166 137h82q-6 -123 -75 -183.5t-181 -60.5q-102 0 -169 61.5t-73 182.5z" />
<glyph unicode="&#x43a;" horiz-adv-x="901" d="M143 0v1094h156v-510l379 510h184l-338 -426l348 -668h-182l-272 545l-119 -156v-389h-156z" />
<glyph unicode="&#x43b;" horiz-adv-x="993" d="M23 4v123q31 -6 67 -6q66 0 90.5 82t24.5 338v553h645v-1094h-156v963h-340v-435q0 -264 -50 -401t-187 -137q-55 0 -94 14z" />
<glyph unicode="&#x43c;" horiz-adv-x="1245" d="M143 0v1094h242l199 -721q4 -18 39 -221h2l37 221l198 721h242v-1094h-150v963h-2l-276 -963h-105l-274 963h-2v-963h-150z" />
<glyph unicode="&#x43d;" horiz-adv-x="985" d="M143 0v1094h156v-453h387v453h156v-1094h-156v510h-387v-510h-156z" />
<glyph unicode="&#x43e;" horiz-adv-x="987" d="M102 551q0 571 391.5 571t391.5 -573q0 -317 -99.5 -447.5t-291.5 -130.5q-190 0 -291 130.5t-101 449.5zM264 535q0 -211 51.5 -322t178.5 -111q129 0 179 110t50 323q0 248 -53.5 352t-175.5 104q-125 0 -177.5 -104t-52.5 -352z" />
<glyph unicode="&#x43f;" horiz-adv-x="985" d="M143 0v1094h699v-1094h-156v963h-387v-963h-156z" />
<glyph unicode="&#x440;" horiz-adv-x="985" d="M143 -381v1475h156v-123h2q35 72 98.5 111.5t124.5 39.5q358 0 359 -557q0 -133 -16.5 -234.5t-54.5 -185.5t-107.5 -129t-169.5 -45q-139 0 -236 142v-494h-156zM299 549q0 -76 3 -128t14.5 -117.5t33 -105.5t61.5 -68t97 -28q117 0 165 115t48 348q0 426 -215 426 q-68 0 -112 -40t-63.5 -112.5t-25.5 -137t-6 -152.5z" />
<glyph unicode="&#x441;" horiz-adv-x="888" d="M102 532q0 590 379 590q158 0 245 -105.5t87 -264.5h-147q0 240 -187 239q-68 0 -111.5 -38t-65 -108.5t-30 -143t-8.5 -169.5q0 -68 2 -114.5t14.5 -111t33 -105.5t61.5 -70t98 -29q49 0 84 17.5t54.5 41t31.5 65.5t16.5 74t6.5 81h147q0 -174 -80 -292t-250 -118 q-96 0 -166.5 33t-111.5 83t-64.5 127t-31 150.5t-7.5 167.5z" />
<glyph unicode="&#x442;" horiz-adv-x="784" d="M29 963v131h727v-131h-285v-963h-156v963h-286z" />
<glyph unicode="&#x443;" horiz-adv-x="868" d="M31 1094h162l258 -873h4l241 873h162l-340 -1100q-29 -94 -49 -144.5t-58 -111t-94.5 -86t-134.5 -25.5q-55 0 -110 19v137q51 -25 114 -25q76 0 118 57.5t75 166.5z" />
<glyph unicode="&#x444;" horiz-adv-x="1527" d="M102 567q0 555 359 555q154 0 225 -149v502h156v-504q74 152 223 151q360 0 360 -555q0 -596 -352 -596q-78 0 -130 36t-101 108v-488h-156v488q-96 -143 -233 -144q-106 0 -178 47.5t-108 135.5t-50.5 185t-14.5 228zM264 549q0 -76 3 -128t14.5 -117.5t33 -105.5 t61.5 -68t97 -28q117 0 165 115t48 348q0 426 -215 426q-68 0 -112 -40t-63.5 -112.5t-25.5 -137t-6 -152.5zM842 549q0 -76 3 -128t14 -117.5t32.5 -105.5t61.5 -68t98 -28q117 0 165 115t48 348q0 426 -215 426q-68 0 -112 -40t-63.5 -112.5t-25.5 -137t-6 -152.5z" />
<glyph unicode="&#x445;" horiz-adv-x="878" d="M20 0l334 563l-315 531h162l250 -418l235 418h162l-316 -531l326 -563h-160l-254 451l-264 -451h-160z" />
<glyph unicode="&#x446;" horiz-adv-x="989" d="M143 0v1094h156v-963h387v963h156v-963h106v-428h-143v297h-662z" />
<glyph unicode="&#x447;" horiz-adv-x="911" d="M102 770v324h156v-310q0 -88 36 -125.5t134 -37.5q92 0 184 10v463h156v-1094h-156v510q-90 -20 -237 -21q-137 0 -205 80t-68 201z" />
<glyph unicode="&#x448;" horiz-adv-x="1466" d="M143 0v1094h156v-963h356v963h156v-963h356v963h156v-1094h-1180z" />
<glyph unicode="&#x449;" horiz-adv-x="1470" d="M143 0v1094h156v-963h356v963h156v-963h356v963h156v-963h107v-428h-144v297h-1143z" />
<glyph unicode="&#x44a;" d="M-12 963v131h370v-453h220q133 0 218 -93t85 -237q0 -139 -85 -225t-218 -86h-375v963h-215zM358 131h164q106 0 151.5 45t45.5 141q0 193 -187 193h-174v-379z" />
<glyph unicode="&#x44b;" horiz-adv-x="1298" d="M143 0v1094h156v-453h219q133 0 218 -93t85 -237q0 -139 -85 -225t-218 -86h-375zM299 131h164q106 0 151 45t45 141q0 193 -186 193h-174v-379zM999 0v1094h156v-1094h-156z" />
<glyph unicode="&#x44c;" horiz-adv-x="923" d="M143 0v1094h156v-453h219q133 0 218 -93t85 -237q0 -139 -85 -225t-218 -86h-375zM299 131h164q106 0 151 45t45 141q0 193 -186 193h-174v-379z" />
<glyph unicode="&#x44d;" horiz-adv-x="897" d="M84 381h147q6 -141 47 -210t154 -69q63 0 105.5 31t61.5 92.5t26.5 127t7.5 157.5h-277v131h277q0 147 -47 248.5t-154 101.5q-102 0 -151.5 -69.5t-49.5 -169.5h-147q0 158 94 264t254 106q362 0 363 -587q0 -117 -14.5 -209.5t-51.5 -177.5t-110.5 -131t-182.5 -46 q-180 0 -266 108.5t-86 301.5z" />
<glyph unicode="&#x44e;" horiz-adv-x="1374" d="M143 0v1094h156v-453h188q0 221 102.5 351t289.5 130q199 0 296 -141t97 -397q0 -338 -99.5 -475.5t-293.5 -137.5q-391 0 -392 539h-188v-510h-156zM649 535q0 -211 51.5 -322t178.5 -111q131 0 181 110t50 323q0 248 -54.5 352t-176.5 104q-121 0 -175.5 -105 t-54.5 -351z" />
<glyph unicode="&#x44f;" horiz-adv-x="925" d="M66 0l233 477q-90 35 -143.5 117t-53.5 188q0 139 85 225.5t219 86.5h376v-1094h-155v461h-168l-223 -461h-170zM264 776q0 -92 44 -138t143 -46h176v371h-170q-106 0 -149.5 -45.5t-43.5 -141.5z" />
<glyph unicode="&#x2000;" horiz-adv-x="907" />
<glyph unicode="&#x2001;" horiz-adv-x="1816" />
<glyph unicode="&#x2002;" horiz-adv-x="907" />
<glyph unicode="&#x2003;" horiz-adv-x="1816" />
<glyph unicode="&#x2004;" horiz-adv-x="604" />
<glyph unicode="&#x2005;" horiz-adv-x="452" />
<glyph unicode="&#x2006;" horiz-adv-x="301" />
<glyph unicode="&#x2007;" horiz-adv-x="301" />
<glyph unicode="&#x2008;" horiz-adv-x="225" />
<glyph unicode="&#x2009;" horiz-adv-x="362" />
<glyph unicode="&#x200a;" horiz-adv-x="100" />
<glyph unicode="&#x2010;" horiz-adv-x="684" d="M86 430v139h512v-139h-512z" />
<glyph unicode="&#x2011;" horiz-adv-x="684" d="M86 430v139h512v-139h-512z" />
<glyph unicode="&#x2012;" horiz-adv-x="684" d="M86 430v139h512v-139h-512z" />
<glyph unicode="&#x2013;" d="M0 430v139h983v-139h-983z" />
<glyph unicode="&#x2014;" horiz-adv-x="1966" d="M0 430v139h1966v-139h-1966z" />
<glyph unicode="&#x2018;" horiz-adv-x="438" d="M127 1024v231q0 86 47 157t131 95v-88q-96 -27 -96 -198h96v-197h-178z" />
<glyph unicode="&#x2019;" horiz-adv-x="438" d="M133 991v88q96 27 96 199h-96v197h178v-232q0 -86 -47 -156.5t-131 -95.5z" />
<glyph unicode="&#x201a;" horiz-adv-x="491" d="M158 0v197h178v-232q0 -86 -47 -156.5t-131 -95.5v88q96 27 96 199h-96z" />
<glyph unicode="&#x201c;" horiz-adv-x="763" d="M121 1024v231q0 86 47 157t131 95v-88q-96 -27 -96 -198h96v-197h-178zM455 1024v231q0 86 47 157t131 95v-88q-96 -27 -96 -198h96v-197h-178z" />
<glyph unicode="&#x201d;" horiz-adv-x="763" d="M127 991v88q96 27 96 199h-96v197h178v-232q0 -86 -47 -156.5t-131 -95.5zM461 991v88q96 27 96 199h-96v197h178v-232q0 -86 -47 -156.5t-131 -95.5z" />
<glyph unicode="&#x201e;" horiz-adv-x="763" d="M127 0v197h178v-232q0 -86 -47 -156.5t-131 -95.5v88q96 27 96 199h-96zM461 0v197h178v-232q0 -86 -47 -156.5t-131 -95.5v88q96 27 96 199h-96z" />
<glyph unicode="&#x2022;" horiz-adv-x="546" d="M25 618.5q0 104.5 72.5 180t174.5 75.5q104 0 177 -75.5t73 -180t-72.5 -179t-177.5 -74.5q-102 0 -174.5 74.5t-72.5 179z" />
<glyph unicode="&#x2026;" horiz-adv-x="1966" d="M238 0v197h178v-197h-178zM893 0v197h178v-197h-178zM1548 0v197h178v-197h-178z" />
<glyph unicode="&#x202f;" horiz-adv-x="362" />
<glyph unicode="&#x2039;" horiz-adv-x="544" d="M125 553v121l297 301v-164l-197 -201l197 -200v-164z" />
<glyph unicode="&#x203a;" horiz-adv-x="544" d="M123 246v164l196 200l-196 201v164l297 -307v-121z" />
<glyph unicode="&#x205f;" horiz-adv-x="452" />
<glyph unicode="&#x20ac;" d="M47 516l39 133h84q-4 37 -4 78q0 31 4 76h-123l39 133h94q57 539 449 539q184 0 276 -80v-166q-92 92 -254 92q-139 0 -216 -102.5t-93 -282.5h487l-38 -133h-463q0 -10 -1 -37t-1 -39q0 -14 1 -41t1 -37h415l-41 -133h-360q37 -391 309 -391q158 0 254 92v-170 q-84 -76 -278 -76q-389 0 -445 545h-135z" />
<glyph unicode="&#x2122;" horiz-adv-x="1474" d="M0 1356v119h551v-119h-213v-711h-121v711h-217zM670 645v830h174l194 -586l203 586h174v-830h-108v711h-4l-232 -711h-63l-228 711h-2v-711h-108z" />
<glyph unicode="&#xe000;" horiz-adv-x="1095" d="M0 1095h1095v-1095h-1095v1095z" />
</font>
</defs>
</svg>
